# xmcd CD database file
#
# Track frame offsets:
#	150
#	16856
#	38744
#	53222
#	70880
#	88909
#	103403
#	117703
#	133957
#	148964
#
# Disc length: 2322 seconds
#
# Revision: 2
# Processed by: cddbd v1.5.1PL2 Copyright (c) Steve Scherf et al.
# Submitted via: CDex 1.51
#
DISCID=9d09100a
DTITLE=Grupa Balans - ... idemo dalje ...
DYEAR=2005
DGENRE=Narodne
TTITLE0=Umrijeti od ljubavi
TTITLE1=Ne sviraj mi violino
TTITLE2=Stara krcmo
TTITLE3=Srce me je otkucalo
TTITLE4=Rujno vino
TTITLE5=Pred tvojim vratima
TTITLE6=Pramen mali
TTITLE7=Padaju rani snjegovi
TTITLE8=Godine prolaze
TTITLE9=Volio sam djevojku iz grada
EXTD=YEAR: 2005
EXTT0=
EXTT1=
EXTT2=
EXTT3=
EXTT4=
EXTT5=
EXTT6=
EXTT7=
EXTT8=
EXTT9=
PLAYORDER=
